<svg xmlns="http://www.w3.org/2000/svg" viewBox="0 0 600 17790">
  <defs>
    <style type="text/css">
      @import url('https://rsms.me/inter/inter.css');
      text {
        font-family: Inter, -apple-system, BlinkMacSystemFont, "Segoe UI", Roboto, Helvetica, Arial, sans-serif, "Apple Color Emoji", "Segoe UI Emoji", "Segoe UI Symbol";
        font-size: 40px;
        font-weight: 900;
      }
    </style>
  </defs>
  <rect fill="#202124" x="0" y="0" width="600" height="17790"/>
  <text x="40" y="90" fill="undefined">name</text><text x="40" y="160" fill="#002fa7">अन्तर्राष्ट्रीय क्लेन नीला</text><text x="40" y="230" fill="#ff4f00">अन्तर्राष्ट्रीय नारंगी</text><text x="40" y="300" fill="#003366">अर्धरात्रि नीला</text><text x="40" y="370" fill="#ffe5b4">आडू़</text><text x="40" y="440" fill="#ffcc99">आडू़-नारंगी</text><text x="40" y="510" fill="#fadfad">आडू़-पीला</text><text x="40" y="580" fill="#87ceeb">आसमानी</text><text x="40" y="650" fill="#4b0082">इंडिगो</text><text x="40" y="720" fill="#00416a">इंडिगो डाई</text><text x="40" y="790" fill="#4682b4">इस्पात नीला</text><text x="40" y="860" fill="#009000">इस्लामिक हरा</text><text x="40" y="930" fill="#08e8de">उज्ज्वल फिरोजी़</text><text x="40" y="1000" fill="#66ff00">उज्ज्वल हरा</text><text x="40" y="1070" fill="#ff69b4">ऊष्म गुलाबी</text><text x="40" y="1140" fill="#ff00cc">ऊष्म रानी</text><text x="40" y="1210" fill="#c2b280">एक्रू</text><text x="40" y="1280" fill="#00ffff">एक्वुआ या जलीय</text><text x="40" y="1350" fill="#7fffd4">एक्वुआमरीन</text><text x="40" y="1420" fill="#f0f8ff">एलिस नीला</text><text x="40" y="1490" fill="#e32636">एलीजा़रिन</text><text x="40" y="1560" fill="#465945">एस्पैरागस सलेटी</text><text x="40" y="1630" fill="#0080ff">ऐज़्योर</text><text x="40" y="1700" fill="#f0ffff">ऐज्योर वेब</text><text x="40" y="1770" fill="#e52b50">ऐमारैंथ</text><text x="40" y="1840" fill="#7ba05b">ऐस्पैरागस</text><text x="40" y="1910" fill="#008000">ऑफिस हरा</text><text x="40" y="1980" fill="#da70d6">ऑर्किड</text><text x="40" y="2050" fill="#9ab973">ओलीवाइन</text><text x="40" y="2120" fill="#6d351a">औबर्न</text><text x="40" y="2190" fill="#ff7518">कद्दू</text><text x="40" y="2260" fill="#008080">कलहंस</text><text x="40" y="2330" fill="#ffbf00">कहरुवा</text><text x="40" y="2400" fill="#c41e3a">कार्डिनल</text><text x="40" y="2470" fill="#960018">कार्माइन</text><text x="40" y="2540" fill="#000000">काला</text><text x="40" y="2610" fill="#cd7f32">काँस्य</text><text x="40" y="2680" fill="#dc143c">किरमिज</text><text x="40" y="2750" fill="#592720">कॅपट मोर्टुअम</text><text x="40" y="2820" fill="#f4c430">केसरिया</text><text x="40" y="2890" fill="#4cbb17">कैली हरा</text><text x="40" y="2960" fill="#996666">कॉपर रोज़</text><text x="40" y="3030" fill="#fbec5d">कॉर्न</text><text x="40" y="3100" fill="#6495ed">कॉर्नफ्लावर नीला</text><text x="40" y="3170" fill="#fff8e7">कॉस्मिक लेट्ट</text><text x="40" y="3240" fill="#0047ab">कोबाल्ट</text><text x="40" y="3310" fill="#01fefe">क्यान</text><text x="40" y="3380" fill="#fffdd0">क्रीम</text><text x="40" y="3450" fill="#bdb76b">खाकी</text><text x="40" y="3520" fill="#fbceb1">खुबानी</text><text x="40" y="3590" fill="#fffff0">गजदंती</text><text x="40" y="3660" fill="#9955bb">गहन लाइलैक</text><text x="40" y="3730" fill="#986960">गहरा अखरोटी</text><text x="40" y="3800" fill="#ffcba4">गहरा आडू़</text><text x="40" y="3870" fill="#ffa812">गहरा केसरिया</text><text x="40" y="3940" fill="#e75480">गहरा गुलाबी</text><text x="40" y="4010" fill="#b8860b">गहरा गोल्डन रॉड</text><text x="40" y="4080" fill="#900020">गहरा जामुनी लाल रंग-बरगंडी</text><text x="40" y="4150" fill="#918151">गहरा टैन / पीला भूरा</text><text x="40" y="4220" fill="#0000c8">गहरा नीला</text><text x="40" y="4290" fill="#03c03c">गहरा पेस्टल हरा</text><text x="40" y="4360" fill="#116062">गहरा फिरोजी</text><text x="40" y="4430" fill="#654321">गहरा भूरा</text><text x="40" y="4500" fill="#cd5b45">गहरा मूँगा</text><text x="40" y="4570" fill="#177245">गहरा वसंती हरा</text><text x="40" y="4640" fill="#da3287">गहरा सेराइज</text><text x="40" y="4710" fill="#08457e">गहरा सेरुलिअन</text><text x="40" y="4780" fill="#2f4f4f">गहरा स्लेटी</text><text x="40" y="4850" fill="#013220">गहरा हरा</text><text x="40" y="4920" fill="#ff007f">गुलाब</text><text x="40" y="4990" fill="#ffc0cb">गुलाबी</text><text x="40" y="5060" fill="#ff9966">गुलाबी - नारंगी</text><text x="40" y="5130" fill="#ffa6c9">गुलाबी#गुलनार गुलाबी</text><text x="40" y="5200" fill="#cc7722">गेरुआ</text><text x="40" y="5270" fill="#f5deb3">गेंहुआ</text><text x="40" y="5340" fill="#e49b0f">गैम्बोज</text><text x="40" y="5410" fill="#daa520">गोल्डन रॉड</text><text x="40" y="5480" fill="#d0f0c0">चाय हरा</text><text x="40" y="5550" fill="#7fff00">चार्ट्रियूज</text><text x="40" y="5620" fill="#dfff00">चार्ट्रियूज पीला</text><text x="40" y="5690" fill="#01796f">चीड़ हरा</text><text x="40" y="5760" fill="#7b3f00">चॉकलेट</text><text x="40" y="5830" fill="#9966cc">जंबुमणि या कटैला</text><text x="40" y="5900" fill="#ebc2af">जि़न्वाल्डाइट</text><text x="40" y="5970" fill="#808000">जैतून हरा</text><text x="40" y="6040" fill="#fc0fc0">झटकेदार गुलाबी</text><text x="40" y="6110" fill="#483c32">टाउप</text><text x="40" y="6180" fill="#66023c">टाएरियन पर्पल</text><text x="40" y="6250" fill="#f88379">टी रोज़</text><text x="40" y="6320" fill="#f28500">टैंगराइन</text><text x="40" y="6390" fill="#ffcc00">टैंगराइन पीला</text><text x="40" y="6460" fill="#d2b48c">टैन</text><text x="40" y="6530" fill="#e2725b">टैराकोटा</text><text x="40" y="6600" fill="#cd5700">टॉनी</text><text x="40" y="6670" fill="#1560bd">डेनिम</text><text x="40" y="6740" fill="#1e90ff">डॉजर नीला</text><text x="40" y="6810" fill="#0bda51">ताप्रांगीयिज या मैलासाइट</text><text x="40" y="6880" fill="#b87333">ताम्र वर्ण</text><text x="40" y="6950" fill="#009e60">तिपतिया हरा</text><text x="40" y="7020" fill="#ff55a3">तेजोमय गुलाबी</text><text x="40" y="7090" fill="#d2691e">दालचीनी</text><text x="40" y="7160" fill="#adff2f">धानी</text><text x="40" y="7230" fill="#ffe4e1">धुंधला गुलाबी</text><text x="40" y="7300" fill="#ffa000">नारंगी</text><text x="40" y="7370" fill="#d1e231">नाशपाती</text><text x="40" y="7440" fill="#fde910">नीबू</text><text x="40" y="7510" fill="#ccff00">नींबू</text><text x="40" y="7580" fill="#fffacd">नीबू शीफॉन</text><text x="40" y="7650" fill="#6b8e23">नीरस जैतूनी</text><text x="40" y="7720" fill="#8a2be2">नील-जामुनी</text><text x="40" y="7790" fill="#00dddd">नील-हरित</text><text x="40" y="7860" fill="#082567">नीलम</text><text x="40" y="7930" fill="#0000ff">नीला</text><text x="40" y="8000" fill="#000080">नेवी ब्लू</text><text x="40" y="8070" fill="#ffdead">नैवेजो श्वेत</text><text x="40" y="8140" fill="#50c878">पन्ना</text><text x="40" y="8210" fill="#ffefd5">पपीता व्हिप</text><text x="40" y="8280" fill="#120a8f">पराजलीय</text><text x="40" y="8350" fill="#800080">पर्पल</text><text x="40" y="8420" fill="#50404d">पर्पल टाउप</text><text x="40" y="8490" fill="#b0e0e6">पावडर नीला</text><text x="40" y="8560" fill="#003399">पावडर ब्लू</text><text x="40" y="8630" fill="#b5a642">पीतल</text><text x="40" y="8700" fill="#ffff00">पीला</text><text x="40" y="8770" fill="#c08081">पुरातन गुलाबी</text><text x="40" y="8840" fill="#796878">पुरातन लॅवेंडर</text><text x="40" y="8910" fill="#fdf5e6">पुरातन लेस</text><text x="40" y="8980" fill="#cfb53b">पुरातन हरा</text><text x="40" y="9050" fill="#ffd1dc">पेस्टल गुलाबी</text><text x="40" y="9120" fill="#77dd77">पेस्टल हरा</text><text x="40" y="9190" fill="#cc8899">प्यूस</text><text x="40" y="9260" fill="#003153">प्रशियन नीला</text><text x="40" y="9330" fill="#4f7942">फर्न हरा</text><text x="40" y="9400" fill="#32127a">फारसी इंडिगो</text><text x="40" y="9470" fill="#f77fbe">फारसी गुलाबी</text><text x="40" y="9540" fill="#1c39bb">फारसी नीला</text><text x="40" y="9610" fill="#f880bf">फारसी रोज़</text><text x="40" y="9680" fill="#cc3333">फारसी लाल</text><text x="40" y="9750" fill="#00a693">फारसी हरा</text><text x="40" y="9820" fill="#ee82ee">फालसई</text><text x="40" y="9890" fill="#801818">फालू रैड</text><text x="40" y="9960" fill="#ddadaf">फीका अखरोटी</text><text x="40" y="10030" fill="#af4035">फीका कारमाइन</text><text x="40" y="10100" fill="#abcdef">फीका कॉर्नफ्लावर नीला</text><text x="40" y="10170" fill="#fadadd">फीका गुलाबी</text><text x="40" y="10240" fill="#afeeee">फीका नीला</text><text x="40" y="10310" fill="#987654">फीका भूरा</text><text x="40" y="10380" fill="#f984e5">फीका रानी</text><text x="40" y="10450" fill="#db7093">फीका लाल बैंगनी</text><text x="40" y="10520" fill="#30d5c8">फीरोजी़</text><text x="40" y="10590" fill="#ff77ff">फूशिया गुलाबी</text><text x="40" y="10660" fill="#228b22">फॉरेस्ट हरा</text><text x="40" y="10730" fill="#ff00ff">फ्यूशिया</text><text x="40" y="10800" fill="#f64a8a">फ्रेंच रोज़</text><text x="40" y="10870" fill="#eedc82">फ्लैक्स</text><text x="40" y="10940" fill="#8a3324">बर्न्ट अंबर</text><text x="40" y="11010" fill="#cc5500">बर्न्ट ऑरेंज</text><text x="40" y="11080" fill="#e97451">बर्न्ट सीएन्ना</text><text x="40" y="11150" fill="#0095b6">बाँडी नीला</text><text x="40" y="11220" fill="#f0dc82">बादामी</text><text x="40" y="11290" fill="#3d2b1f">बिस्ट्र</text><text x="40" y="11360" fill="#f5f5dc">बेज</text><text x="40" y="11430" fill="#e0ffff">बेबी नीला</text><text x="40" y="11500" fill="#423189">बैंगनी</text><text x="40" y="11570" fill="#d8bfd8">भटकटैया</text><text x="40" y="11640" fill="#cd5c5c">भूरा</text><text x="40" y="11710" fill="#b04136">मध्यम कारमाइन</text><text x="40" y="11780" fill="#0000cd">मध्यम नीला</text><text x="40" y="11850" fill="#9370db">मध्यम पर्पल</text><text x="40" y="11920" fill="#dd00ff">मनोविकृतिकारी पर्पल</text><text x="40" y="11990" fill="#997a8d">माउंटबैटन गुलाबी</text><text x="40" y="12060" fill="#73c2fb">माया नीला</text><text x="40" y="12130" fill="#98ff98">मिंट हरा</text><text x="40" y="12200" fill="#ff7f50">मूँगा</text><text x="40" y="12270" fill="#ff4040">मूँगा लाल</text><text x="40" y="12340" fill="#21421e">मेहंदी</text><text x="40" y="12410" fill="#800000">मैरून</text><text x="40" y="12480" fill="#e0b0ff">मॉव</text><text x="40" y="12550" fill="#915f6d">मॉव टाउप</text><text x="40" y="12620" fill="#addfad">मॉस हरा</text><text x="40" y="12690" fill="#c0c0c0">रजत वर्ण</text><text x="40" y="12760" fill="#80461b">रस्सट</text><text x="40" y="12830" fill="#cd00cc">रानी</text><text x="40" y="12900" fill="#d70040">रिच कारमाइन</text><text x="40" y="12970" fill="#ca1f7b">रिच मैजेन्टा</text><text x="40" y="13040" fill="#734a12">रॉ अम्बर</text><text x="40" y="13110" fill="#00cccc">रॉबिन एग ब्लू</text><text x="40" y="13180" fill="#905d5d">रोज़ टाउप</text><text x="40" y="13250" fill="#bfff00">लाइम</text><text x="40" y="13320" fill="#c8a2c8">लाइलैक</text><text x="40" y="13390" fill="#ff0000">लाल</text><text x="40" y="13460" fill="#c71585">लाल-बैंगनी</text><text x="40" y="13530" fill="#e0115f">लालमणि</text><text x="40" y="13600" fill="#faf0e6">लिनेन</text><text x="40" y="13670" fill="#b57edc">लॅवेंडर</text><text x="40" y="13740" fill="#fff0f5">लॅवेंडर अरुणिमा</text><text x="40" y="13810" fill="#fbaed2">लॅवेंडर गुलाबी</text><text x="40" y="13880" fill="#967bb6">लॅवेंडर जामुनी</text><text x="40" y="13950" fill="#ccccff">लॅवेंडर नीला</text><text x="40" y="14020" fill="#ef83ef">लॅवेंडर रानी</text><text x="40" y="14090" fill="#fba0e3">लॅवेंडर रोज़</text><text x="40" y="14160" fill="#c4c3d0">लॅवेंडर सलेटी</text><text x="40" y="14230" fill="#b7410e">लौह भस्म</text><text x="40" y="14300" fill="#a7fc00">वसंत कलिका</text><text x="40" y="14370" fill="#00ff7f">वसंत हरा</text><text x="40" y="14440" fill="#7df9ff">विद्युत नीला</text><text x="40" y="14510" fill="#bf00ff">विद्युत पर्पल</text><text x="40" y="14580" fill="#8b00ff">विद्युत बैंगनी</text><text x="40" y="14650" fill="#00ff00">विद्युत हरा</text><text x="40" y="14720" fill="#40826d">विरिडियन</text><text x="40" y="14790" fill="#c9a0dc">विस्टेरिया</text><text x="40" y="14860" fill="#fff5ee">शंखीय श्वेत</text><text x="40" y="14930" fill="#4169e1">शाही नीला</text><text x="40" y="15000" fill="#6b3fa0">शाही पर्पल</text><text x="40" y="15070" fill="#ffffff">श्वेत</text><text x="40" y="15140" fill="#cdcdfe">सदाबहार</text><text x="40" y="15210" fill="#2e8b57">समुद्री हरा</text><text x="40" y="15280" fill="#ffdb58">सरसों</text><text x="40" y="15350" fill="#808080">सलेटी</text><text x="40" y="15420" fill="#e9967a">साल्मन</text><text x="40" y="15490" fill="#ff4d00">सिंदूरी</text><text x="40" y="15560" fill="#ff4500">सिंदूरी लाल</text><text x="40" y="15630" fill="#e34234">सिनाबार</text><text x="40" y="15700" fill="#704214">सीपिया</text><text x="40" y="15770" fill="#d4af37">सुनहरा</text><text x="40" y="15840" fill="#996515">सुनहरा भूरा</text><text x="40" y="15910" fill="#ff2400">सुर्ख</text><text x="40" y="15980" fill="#ffd700">सुवर्ण</text><text x="40" y="16050" fill="#ffdf00">सुवर्ण पीला</text><text x="40" y="16120" fill="#ff6600">सेफटी नारंगी</text><text x="40" y="16190" fill="#de3163">सेराइज</text><text x="40" y="16260" fill="#007ba7">सेरूलिअन</text><text x="40" y="16330" fill="#2a52be">सेरूलिअन नीला</text><text x="40" y="16400" fill="#ace1af">सेलाडॉन</text><text x="40" y="16470" fill="#ffba00">सेलेक्टिव पीला</text><text x="40" y="16540" fill="#92000a">सैंग्रिय</text><text x="40" y="16610" fill="#f4a460">सैंडी भूरा</text><text x="40" y="16680" fill="#4b5320">सैनिक हरा</text><text x="40" y="16750" fill="#ff8c69">सैल्मन</text><text x="40" y="16820" fill="#ffd800">स्कूल बस पीला</text><text x="40" y="16890" fill="#708090">स्लेट्आ ग्रे</text><text x="40" y="16960" fill="#ec5800">स्वर्णाम्र</text><text x="40" y="17030" fill="#01fe01">हरा</text><text x="40" y="17100" fill="#018101">हरा HTML/CSS</text><text x="40" y="17170" fill="#78866b">हरा#छलावरण हरा</text><text x="40" y="17240" fill="#00a86b">हरिताश्म</text><text x="40" y="17310" fill="#f0e68c">हलका खाकी</text><text x="40" y="17380" fill="#990066">हलका बैंगनी</text><text x="40" y="17450" fill="#add8e6">हल्का नीला</text><text x="40" y="17520" fill="#3fff00">हार्लेक्वीन</text><text x="40" y="17590" fill="#5218fa">हैन पर्पल</text><text x="40" y="17660" fill="#df73ff">हैलिओट्रोप</text><text x="40" y="17730" fill="#f400a1">हौलीवुड सेराइज़</text>
</svg>